/* XPM */
static char *result[] = {
/* columns rows colors chars-per-pixel */
"128 128 69 1 ",
"  c #30373E",
". c #353B45",
"X c #383F46",
"o c #353B4A",
"O c #383F4F",
"+ c #3A4147",
"@ c #3D444C",
"# c #3F484E",
"$ c #3D4352",
"% c #40474E",
"& c #41494F",
"* c #414752",
"= c #454C53",
"- c #484F57",
"; c #404658",
": c #454B5D",
"> c #484F5D",
", c #475056",
"< c #495057",
"1 c #4B535B",
"2 c #4F585F",
"3 c #50575E",
"4 c #50595F",
"5 c #464D60",
"6 c #484F61",
"7 c #4C5363",
"8 c #4F5961",
"9 c #4F5668",
"0 c #505764",
"q c #535C64",
"w c #585F65",
"e c #505769",
"r c #545B6B",
"t c #585F6E",
"y c #595F70",
"u c #566067",
"i c #596067",
"p c #576168",
"a c #5B656C",
"s c #5D686F",
"d c #5D6372",
"f c #5F6970",
"g c #60676D",
"h c #61696F",
"j c #616675",
"k c #626C73",
"l c #686F74",
"z c #656B79",
"x c #696E7C",
"c c #657076",
"v c #697177",
"b c #667179",
"n c #6A747C",
"m c #6D787F",
"M c #70777E",
"N c #71797E",
"B c #6D7780",
"V c #6E7981",
"C c #717681",
"Z c #737C83",
"A c #787E86",
"S c #797E88",
"D c #778086",
"F c #798187",
"G c #778088",
"H c #7B8289",
"J c #81868D",
"K c #84898F",
"L c #868B91",
/* pixels */
"llkkllZzwgnnnxnlnlMNvMl44gnBBnBBnBBBBVmZZAAZHHBr99911<1qffffffbbbbbGbbmmbmbbbmbbfbDDfDDfffDfbkkbp6pssssssskzhpsssggfhkjkkkkhkjlk",
"lzzlbmCtwlMlvvllnnNMvvwilnCnnnBBBnnBBBVAAAGHCde9e92<10asfffbfGbfbbfbbbbbbbbbbbbbDbbfbffDbDBckbbbd1ussassaskkaaisasjfgjhhskkjlllj",
"zcvvxAzwlnMllvnMnvZMnhtnmmmmBBmnBnnBVVADGGAdreeq7114sfkffbfffbGGbbfbbbbbmbmbbbmbcbcDDbbbDcfBcffbz8uaasssakkaaaapsssssakkgkkklkkk",
"ccvlZMtannlnlvvnvMNMvilnnmnnBBnvBBVVVZDDGAyrree7110sffkkffbfGffbbbbbbbGbbmbbbmbmDbbbfBcbffDcccbbzq8aasaaklasasssasgasghhjkkkkljk",
"zllMKjwlnnllvvzvnMNvvgxmnnnBBBnBVVVVGGGGGZrre61<2pffkfcfffGGDsDsbbbbGbGbbmccbmmbbbbbnnbnDcDfBscBnq8asffczkppisssjssgskjaghkkkhll",
"lllSMtinnnnnnclklNvMghBvnvBnnnBBVVZGGGZZGHye1<10affkskfcffsbsDsDbGbbfbbbmbmGbbbbbnDbbbnnfDfBDfffnrussfcblsapaappisssajkggjkkkjkl",
"lmCxdwlnnnvvvvvlvNMvwlnmBnBBBVBBZGGGGGGGHLze-wfffsfkffcfGssGfGBfbGbbbbbbmbbbbmmbcnncnnmmDfDDffBDdqaffbbnlasitaagaahjsgkjjkklzgjl",
"MvjtwhnxnvnllclxvvvlinmMBBBBVBvBDGHGGGZGHBzr3wkkssffkcfcffffGfDfbbbbGfbbmbmbbbmmnBBcDnnnBBBfccBc0rdflbbbhppiiassgjkgsgkkkkkkkklh",
"jdtilnvlllnllllvnnMgaBnBBBBVVBnVGGGGGHGBs9f95uffffffcfccfbBbfDfDmbbbbbmbbbmmbmmbmmnmnccbnmmmvlCa1aklnvvkaaraaassjgkhgjkkkkzlkknM",
"rilnnvnvnnnxllvmMvMqfBnnBnVVBBZDGGGGHGBrry9u8uccfffckcfbbBbBBsDfmbmbbmmbmmbmVmmVnmBmBbbnVmvvxnz7ilvcvvvfpaiapaagsssskkkkhllkkMMj",
"hvnnnxvxvvvvvvnvvMl2kmVBBBBBBmAGGGGGGyyyyru8,pffffkckfkkbnnBDBDcbmbmmmmmmbmmmbbVnmmmnnnnmnvvNzqazvvvnvdppppsahsshslllkhsgkkkxjrw",
"vxnlnnvlnvnllvvvnvwpnBBBBBBVBnDGGGGfyyyry9,8pfbfccffffkcbbBnfBfDmmbmmbmmmbmmVmmmnmmmnnVVnvvnMtpzvvnvvzapaapsssaslsajkgsjjhlztrgj",
"nlvnvnnvlnvlbvvMMgwvBBBBBVBVVVGGGGyyyypu958scfbffcffcfknDbDbbDDfmmbmmmmmmmmmVmVVmVmmvnmmnvnZBednvvxzldpapapaaasaipijhhkkkjjtwhln",
"lvvxnvnvvxlzvvvnMiinBnnBBBBBZAGLGyyyyp985ufffffbfccbbbcBDbfDDbcDbbVbbmmbmmVVmVVmVmVmmMmmnvNzffbbvvzjddpapupaaaaasashjggkkaeqlxMv",
"nvnllxvvvvllvvvvngimnnnBBVBZAHLCyyysp9,8pfcffffbcbcffcbnbbBbcbDcbbmbbmmVmmVmbmmVmmmVVVMnnZZkffbfzddddauppiaaasaasskshkkkle0gxnlx",
"xvlkkllvvvlvvmnnviinnBBBnVAGHHndsyp9868scfcfcfffcfcbBbBBbDbDBBcDmmVbmmmVmVVmbVmmBmVVVmnnNSzkBddfdddyrrqppaaaaaaaassahhjlteslvlnv",
"zllkklcvvvvvMvlMMhwvBBVZZASSCddyp98,8ufbfbfbfffcbbbmbbbGDffBfDDcmVmmbmbmnVVbVVbBDBDbbccDGbfByr881,=&&4ppapspsiijgffjgkkjervvvcll",
"clklklvcvvvvMvlvnlwnZAAAGABzddye5588ssffbfffcbbbbbbbGbGbssDDDBBcVmVmVVmmDnnDBDDbbDDbnDDGbfp#####@&#&=4tppapsassagfsgkkkt7gbllllb",
"vblklkbzvclMvllMngwnAASAVzdddq719pffsfbfbfbfcfffbbbmbbbbDsDfBDcDmVVmmVVVVVnDVDbbDDbcVHVfu,#,68#8222qq4qpppiaasgfssjhgjd7qllvzbbz",
"vzbllxllvcvvMvMvl4gAGSCzdddd0<2iffffsffbfbfbfbbfbbmbbGbbfDsDDfDDVVmbmVVVVDVVDBDDbbbDZBs7#222qqau888qqipppsptaaaaakhsssr6tllxllvv",
"lkllblllclvmMvMlgwMSCzjjddt2<4skffffbffffbfbbbfDbmmbbGbbDfGDDbDcVVVmmVVVVDVVVZZVVnBABd1-8uq28uuquu88qswpppstasasgjkkst76qlzlklcc",
"klzlvcbzlvnnvMvMliMjdjyjdr11qasffffbfbfffbbffDDbmmbGbGbGfGGffDBBVVVVmmmmVVVDVZZVmAAxd7,q8uqquu8qu8qusspppsaiigsskhfr7::>pczkhlzl",
"klkklzllvvvvnvMMMqrjdjdt0<2ussfkfbfbbfbfbfbbfbbfbmmbbbbbbGbGbDbDVVVVVVmVVDVBVZBZJCzj8,8u8u8u8uqqqqqpkpppqpiptppsar7:::>2gllkkllk",
"klklcllvlMvvnvMZhstrtyr114afffsfffffbffbfbDfDbDfbmmbbbGbGbGbDbDBVVGVVVGVVDVBVVBLCzzq-8quuuuuu8qqqupsls7977>66>>65;:>>7ihlllklklc",
"kkzlllkzvMMMvMZxddu111,7uassskfffbffbfffffbVbVbbmbmbmVmbBBVVVDnDVVVGGGbGGGbGVBGZzzd=8uuu8qquuu8uqqshkp11-1-1111>>>14gklzzlkkzlll",
"kkklkllbvvvvlNCjda2uu28aksfkffkfyfbffbbbbbVbVVbVmmVbmbmVBGVVVVDBVVVVbGGbbGGmBVGBzj11uuuuuuqqquuuqasklsqqqwwggiw413wjzkklzljkkllk",
"shklllzvvMvMlFlyd91assffsfkfffkkfbbfbbfbbbbVbbbVmmmmmbbGVVVVDVDBVGVGbGbGGbbmVHBdz7-quuuuuquuquuuussskhkhjkhkzkzjagkkggkkklkkkzkz",
"kjzlllnnvvMvNNaar<qassfffkfffffcfbfffbbbbVVbGbbVmmmmmbmbVVZVVVVDVVVVGbDbbDGGVBBBp-2pppuuqqupppqqaskfgkkkklkjkgkkzlkkkzljkkkklkkl",
"zkflkcnvMvMvHzyd72saafsffffffkfcbffbbbbzbVbVbbbbVVVVbbmmVVZZVBBBVVmGVmfGDDDByBcf-1uuuuuqupppppupghhkzkkkkkzlkgjhkklklzklkkhjkkkg",
"gkklzbnnvMvMCyyr2psafssfcffffkfffbbbVbbbbbbbVVVbVVbVmbmmVZVVVBBBVGmmmmGGbfccByf8<quuquuppppppppuhjkkjhkkkkkkklhhkzlkkklkjklkkjjk",
"zllkhvMvMvlMntyq8aasfffffffccfffbfbbbbbbjbbbBbVbbbVbVbbmBZZZVBBBGVVmDGbbfp85$,##2uuppppquppuqppakjkklhkkjghjjkjjkkkkjhlkhlkkkkkl",
"kklhvvMnvMNSCjr2usffffffcfcffcfffzbbzyjjyjdyyzyzjjjzffbbBBBBbBBBGVGDbcfp5:,,#:88uppppppuuppappaskhhjhjkhggklkkklkkkklkjklkkkzklk",
"kkllMvMlNACdddr>pfffffBysffBcfcffBydddardddaayrrp888888pfkBdBfBBCCxzkq<=&,10qppauuaiuautpuapppfghkkkhkjhfsjkjhkgkkkkkklkklkljklj",
"lnnnvxNAMhryyr01pffffcffffssbfddddd92,---=-*##&=###8#81##99rrBBBBzje*&,<4uippppiaauaappppuupaffkkgjgfksggsskkkjfjhkgjkkkljkllklk",
"nnvMCSCjtrrtr3-0yyypyfsfffpffddddu5#,,,11,,,,,2q8uuusqquu8###8sBde$o$1uuaaspppppapupppisapiasjssjkhassskgfgkkjasjgkjkkkjjkkkkllx",
"nMNMxyryttr6;>0tyypupyyyyysyyddf7,,78qqpu8uuqquuuuuppuuppppp9##p>O$:qppppippspppapappappaassjgjgshkstsfkhkjkgggghkkgkkgggkkkklvn",
"Nldyerrr03::0rrr8888,589yyaayyu#,28psspsqquu8uuuppppuupuppppp8##;;6tapppuaiaatpsapaapaapasaaffgjhfssigjhkfksajjgkkkhkkkghjklvvvM",
"trerre7>::0rtr0>888uuu85558q98#8ussssappppuupppupppp8uuqppppapp8>6qiaaapaaaaappiaaaaaaaaassissffkgjkkkkgshsfkkgakhhjkkkkkkllnMNM",
"eee75;>60rrrr13wssffffspu1#1##pssssssspuppupuquapppupppuupppppu65qisppaaaaaaaaaaapuaspaasssaisffsggsffgfgjskksssjhkkhkjllvMMMnjr",
"7>;=5errrr001qgjfssffsssssp8upffsfsssapuppppuuuuppppppuuupppap856aipapapaaapaaaaaaaaaaaasssgjgsfffasjkffhhjgkhkfhkkklllvvMMxaeee",
"@#<798987311isfssssssfffsssssfsffffssspppppppppppppppspaauappp65epiaaiisasiapsaaaaaasassgafssifssffsgjhfkfjhkjggklvvnvnmMkye9e97",
"1221111>--0phkssssfsfffffsssffffssfspsppaappappaapspsppaaaaaar55pptsappssaasiaiaaaaaiasasaajpsgfpasffsgfasksgkklvvMvMmvdr77977>-",
"ffssappuwwhgkfffsfffsffsssssfffffffssppappaapuuaaapapaaaaaaar7:6apaaiapsaaadsaaaaaaaaasassaasjsitagfssssssskllvnvMnMkt977771111w",
"ffffkffcjjkkfffkpDffffssffcffffffffppppaaapaaupupaaasppapap95>5qaaapaapssasaaaaaassaaaasassagaspaaafssfsjkllnvvMvlte76677-33qish",
"ffffffffkffffkfkffBffffcfcfffcfffs9pappppaaaapapaaaapaaaau65:5eaaaiagasiaagaaaiaasgsaasagfashgskjggjghlllvvvvnlte766>7>1<usfskfs",
"fffkfffffkfkfffkffssccffffcfffffp8paapppppappaasassaaasa856$1tsassfsdssjsffffffsgssaiasaissklkkllllkllvvvvvzaq6:>><>1<1<qfffssff",
"fkcfcfffffffkfkfffffffffffffssau5uaappuupppssssaaasaaaaq::58issaagsassasagjagfgasiaaisaashklllbclllllcvvlje6555>=1qquuuasskfkffk",
"fkkkffcffccfccffspDssDfaDffcsa958aapaaaaasasppsssasassa75:8asispafsasgaaasiaaffsssaapashlkkfarrypaadfjae75:::::=1akhffsffffkffff",
"kkkkfkcfffbfbffcfccfccffffcss958pappppspppfssppspssssfp5:2pasajsfsagsssfaasssjgssssppsjst97::5:55:::55555555,,56afffsffffffffffk",
"kckkkkkffffbcbbfcfffcffcfaaa978ppssassssspsssssppsssppp5>wsagsafajsjssgfsjssgagsssspwt75::5:5>5$;;;::555:5,,,88sshffsfffffkkfffk",
"kcfffcfffbbfffbbffffssffsspu88ppssppssssspssssssfffsffp51isafsissssgfkjhgfsjksjshkgr7:::5::::;$. o+#$#,,,,8psssffffsffkfckkffffk",
"ffkcbffbcbfcbcfbffssssssssp88usssppsppsssssssffsffffff551sssajgfsssghhsgkssggkgsjgfpe::5::;::@.+##,5##,,8pfffsffkffsfffffkkcfkfk",
"ffbfffbbcfbbccffsssfsssy99959apppapppssppffffffffffffp550hhsdfssgjffjhssgkskfsssgjhkf7:::>01%@&18,1,8,88pffffffskfcffffffffbkkkk",
"fbffbffccbbfkksssssfsp997988pssaspssffffpsssfbffffffpu55qsssfffsfhfkksjfkhjkjkkfsgkskp27re>+%-1151,8ppssffffffDpkffffcffffbfkffk",
"bbbcbffkfbbfsaassffp9888upppspsapsssfsssfsssffffffffu855pffafdsskjggsjkkjshggkjhajgskadyr%@=11118,18sssfffffffDfffcfffffffffffkb",
"fcfbbffccbcsssasfs988pppasppasspasffspsfsfsffffffffs885,pfffffdfskkkkghhhhjkkkkhskjfdyr1@%111111,,1psssffffcfspffffcfffcfcbfbbkc",
"bcbbckkcckssssffp98usspspapppspasfffffffffffffffcfcsu8:,ssffffffjkkhkhhkkkkkkkkhfffddr###,8,8,,,81pssfffssfBssfffffcfffcbcccfcff",
"fbcckccnksssfffy68uppppssspssspppfffffffffpDfffbfffpu8:5ssffffffhgghhjlkjkkhkkljkfbdy5@,8288,8888pfssfssssfffffscfcfBfcffcffccfB",
"cccckbbkpsssfff81ppssspssssssspsfffffcffspfffffffppp88,8sfffffffkjhjkhjkhkkjkkhhffcr6@,288818888pfsfffsssfffBffsfcBfsffcccccfBBf",
"Bbcbnnssspasffa8qspspsffsssssfffffffffcffDfffbfppuuuu85,sffffcffkhkkkjkkkkhklkjlcByr:,2281888,8pssffffffssBfsfDafcfcfcfccfccckfB",
"fckVbsfsssfffcq#ppspfsspppssssffffcffffffDffpfuuu8uuu55,pfffcfsfkkklkjhkhkkjlzjjdyr9#,82822888pfspffcfcfffcccfffBBssfcfcccccBkkB",
"fBbDbssssfffff88pssppssfsfsfssfffcffffsfp8spuuuuuu8u8558pffcffsBkkkkkzkllzxzyttrrrr5#28821818sffsssfffffffffffBcsfffcfcfffBcffkc",
"BBDcssssffsfbs5#spfppfsffsssfsffffffpspp9pppppuuu8uu558,ufcfcfffkljgytddtryretee9r8#,8228288pfsffssfffcffcffsfccffcBfccffccccfBf",
"Bcsssssssffffs62pfpffspfspupssssspppppppppppuuuuuuu5555,8fpppprptjeeeeeereerreee98##1u88882ufffssffcfffcfcffffffBBffbBfcBBBcfBcB",
"sssfssfffsfffs58sapspspsaappaapapsppppapuupquprpae755>1>>7656777e7e77e77e7e01-**###22442u2ussssssssssscscsscscccccmmmsusccccmccc",
"sssfssffffcfsp,uasaaspspaasspaaasaapsspapauupeq99665:*@O:55>5>6>>6>>======&&*=<12244u42u222ssssssccscscccsssssccccccsssssssccsss",
"ffffsfcffDcsp65paapsspssaasppppapspsppapaaape977677:Oo@::===-=,======<11<1<<44uqu22244422uussssssscsscsccccccccsssssssssssssssss",
"ffffffccaafp89psaapsssppapasasapaasspppaaaae977975$ooO;**=188quqqqqqqqqqququu0qqu44uu2u222sssscsscsssfcfsscccsssscsccfsssssssssc",
"fffffccfsy989fsssassssppaapapsappaspaaaaaar997;;:Ooo@==-2qqppqprqwuuquuuuqqqqqqqu224u4u4ussssscsscsssfcsscsscssscscsffssfffsssss",
"ffaBcfcfp7uapssssssasssssaaasssssspasaasa9997$o.oooX&-2qppupuupuqwqqquirquuuuqquu4uuuu44usssssssscssfcffcssssscccsfsfccfffffssss",
"ffsffBBp,uaassspspssssssspaasssspppsdffar996@.+.X+@<4qppppuquuuurpippuwqqiuquqquuuuu4uusssscsscsfcsccccccssssscsssssfcfffssfffcs",
"ffffsBp,uaaapssssssspasssaassfaassssffdr97:+@&-110qqtwppppppuuapppipppppquiquuuquu4u4usssssscssccsssccccssscscscscfffffffsfffsss",
"ffpfDB66ssspssffssssssfssspaaafsssakcd991*@<0quiiipppppppppupppppwqpppipiuiuiptuuuuuuussssscssscfssccccssssscscssfffffsssscfssss",
"ffsssy8pffsspssfffssffsasaaffffassscfrr5=1qtiippuupupisiappapaaptpppiipppipppqiquuuuussssssusscccsssssssssscsssssscfffffffffssss",
"fffpBsuffsssssfssssassspsffsffffssfcp9:,3pipaauppipppppppaappapppaiaspppppppiuuuuuuussssscscscsscfcscscssssscscssffcssfsffffssss",
"fffDfspffssfssssssssfssfffffffffssbfr1,8pippuuipaaapaaaipappapupippptappppppupiquussussscsccsccsssfsssssssscscssfffffffffsffsscs",
"ffffBuusfsfsffsssffssssfffffsshhskvy9=8uppapippsppipppaapapapapaappsappwppaippiqusssssscsscsccssssssssscscsssccsffcfssffffcfssff",
"ffffB9sffsfssfffsffssfffkfkkfcshlnny71puiptiaipippspaaappaaaaaappiippsataappppppussccsssccccsscssccscssssscssssccffsscfsssfffcfc",
"fffBGyssffsssfffffffffsssffkcscvxMje<qpuppappatpaiatppppaaaaaaaaapiapiiapppitpapsccccsccscscscccccsscscccscssscsfscsffffsscfcfff",
"fbccDsfsffffsBspDffsBfassfkfscnvnxr21quatippppaiasaiaasiaaaaaaaaasittaapaippipskssshccsccscsccssscscscscscscccscccfsfscfsffffffc",
"fbbmSjkkkkzkkffkffcfcfyssfcffbmnmye1qppppippipsaaaaaasapssspasaasptisaaisusuushhcscscsssschhcsccccscchscskfcfcfcfcsffcscssfffssf",
"fbbmCaskfffkfffkffcfcfcfffcfcnnmzt01ppisaatpispaaaapaaaaapsssaaasaaaspasusussschcscccssscsscccsssscssccskscsffffcssccfffcfcfssss",
"fcnVxrpcfffkkkkkfcfcfsffkfffbmnBjr-qiapaapaaaispasaasssaaaysyaasaaiaaaassiisscccccssssscschhcssscscchssckscssssfffsscfcfsssfssss",
"kcmDnqqkkkkckcccfcbfcsfckffknmmBt01ipsiiaaaasaspaaaspssssassssssaaasaasassshhcchcscsscchscccschcccscchcckshhssffsfssfffffsffsfss",
"cmZkr7pfbffbckckkkbckfkbkkfkDBVbe-qispptaaisaagaasaasasssasassssaaaaasatsschhcccccscccsscscchcchsscsscffkhchfhfhffsscffccscsffcs",
"Vnd84pkkfcbkkkccbbfbbfbfkcffbBDy0<psaaaaaasaaaafsssssssssssaasasssssssagsccccchscscccsscsccschccccccskcfkhhckfkfffcssfcfsssscfcs",
"ku2qkkccbbbffkckfffkbkkbBkccDVcr-3pipspipaassadassssssssssayppppfspfssszcschcccccscssccssccchcchcssccccfkkckfhhkccscffffsscssccc",
"uuafkkkkcccffcbfcbbbkbccfccBmDy9=qaasiaaaaaaasasfpsfsssfssauppputfasssklccccchccccccccscccschschsccsfcfcfkkkchcksfcscffcccccccmD",
"9sfyfpssccccBfffbbccfbbbclcvZnr11qaaaapaasfaajssffffafspapppapppqffshkcffcccckcsscccchsscccscscsscchccsckkccfckkfhlcckbncmcmmmDc",
"DDfDDDfBbffffBBffcbbfffcccbmSzr-2sppaaaadaaaaafsasaaaapsaaappppp9qffhcfhfccckccshchccscccscccshccsshcssckkffcfhskkvnnmnnccmmmKmu",
"ssffpDBscccBfBkBcccbBfbbcclmSjq-qpaaaaassasgjasapaaaaaapapaaaupp85tzkckkfckckkkchcccccchsccshgchccsccccckfklccccvvNNmmnVDmmmDcuu",
"DffffssBbbccBcckcccbbbbbbbxACt0<pssaaaassssasassfsasaasaaaapaapaa>rlccclfcckkkcccchccccccscccchcsccccccsllklbvnNNNvknnbbccccsuuf",
"fDpffDsscfBfcfBcbbbbbbbbbbBZjr10aassaadsffffsaffsasaassaaaaapaaparkcchckcckscckkccccscccscccscccccbmNNcNnMnMCnZBzaryyyy9uuppu2pc",
"fffDBffDBDfBcBBcnbcbbbnzbcZBrr>qsiaaffffkfffsffssaasssaapaapaapaflccccclcchkkcccchcccccscccscsccvmmmcNNcnMnxjyrrrradruuupfkssscc",
"fffbafcfccBffccBbbbbnbvnnnmzre1paajhfkfffkkffsfkfsfspsaaassaaaaskbcccckkcckcccckccccschhccsccccNNnksscNcljtrrqadkcbncccfnDmmmccc",
"GDbbDfBDfBcfBBccnbmbbnvmZZZfr11skkkkkkkkfkffffkffffspssssssaaaasbkkcccccckcckcccchchccccsccccccca88q24uueeraajnnnvbzbbDDbbmmcbcc",
"fbbGbbbbbbccnnnnbbBbnnnZZACje=0kcfBfBsfcfffffffsssfsssssssssaaasccckckcccckkccckchhhccklccnbcky98adffr8q9bbbbbbVbbbbVBVVVBVbbbbb",
"bbbbbbbbnnnbBbnnBbbnnMAAGByy2==tfcsfffcfBfccffDsfsffffssssssapascckkccckhchcccccccvvvvcvbnmbp779sbcnbcafbVVbVbbVGbbVVbbbVVVVbbbb",
"bbbbbbbbnnnnbBbnnnVVZAAAxtq111:pfffffcssfffcssfsssffffffasssssihccccccckcckcckccccvnnnmnmnf969fccbnnnnnnVbVbbVbbVVVbVbbBVbbbbbbb",
"bGbbbGbbnnnnBbnVDDDGAHAde7-1qt>sBccfBffBDBfcDffpsfffffffsssksshhcccccccckccckccccklnnnnzla77pcbbbnnnnnnnbVbbbGVbbbGbbBVBbbbbbbVb",
"bbbbfbbGnnvbmZZZDGAAGZj0110tgr>pccfcccbbsfsfssfDffbfffffssvvshkhcccccccckkccfcfr757edaa7661pbbbbbBbBbcnnbBbzbBBBVVBbVbVBbbbVbbVb",
"ffGfbbbbmnnZAFFADGGVdy02qahghq>rccBccccbsBDfsBfsffbffbffhvnhhhhrkccccccckkcg95:5>::5:55557rlbBbbbbcczznnVVbVbbVBVVbbbVVbbbbbbfVb",
"GffGbbGbNANDADFFGHGfr04ahhssp7>rfcccbcbbDDsfffDBbbfbbfffcvhshlaecccccccccku1556$5>>5::518aklbbBbBbccbnBbVbbbbGGbVVzbbBbbbVbbbbbb",
"fGGGGGGGDDDADFSSHDdr90shhhskr51kBcBccBbbsfBsDssfbfbbfbfbMgsskhrrccccccccs8::556>7qq775>0fbkbbbbbbBBbBnBnbBVVBbbGbBVVBBBbbbbbbbVV",
"GGGGGGDDGHHHJSZSxtr32pfsskkg91qvbbbcbbbbbccbcbbcbfbbkccNNhhhkkefcccccka96555:2uskcfcfr8fbbkbbkbBBbBbBBBcDBcBbVbbfDGGBBDfbVfbGGGG",
"GGGGGGGGHHJFzdyjzr01phjggsja>7knbbBbbBbbnbbbbbbbfbfbcNvkhhhhkk9qshksu5556#512pfccccccccbbbbbcbbBbBBbccbDfBcBGbbbDGffDBsBbVGGGGGG",
"DDGDZGDDCnkre312q31wkjkkkjsa>7lnbBnnBbbBcbbnnbbbfsbGckffhfhhkk55,75555$6>117akcckccccccbbnbbkbBBbBBncDBcBBDBGbbbbGDBBsBfbGGGDGGG",
"DDDDBsyu0220qqwqqqwkhhgjgkkg79fnbBnnbBDfnnnnnbvnDDfpkhkshhhhbd562#55#>,728qafkckcccccfcbbbnbbBbbBBbBbBBDDfDBbbGGGbfDDBBsBGGGDGGG",
"Dcsyr911qisskjksjhhghkkgskls7qbnBbBnVbnnBBbcccnNffffcfcskhgcv25ap,>,71qafkbkcbbfbbcbcfcnbBbnbBbBbVBBnDbBfDfGfGGbbbGbDfDBfDDDDDDD",
"Gyu88#8akkkgghgjkkkjhjkggfkr1fBnVbBbbnBnnbbcvnvcffcfcffshkcvc:8ffaq28pfffffbffbbbfbBcffcbnbBBnbnBbbBBbDbBDDGbGbGGGGbfBBfcDDDDDGD",
"yfu218ssjkhjsjsskjkkkkkhkka7anBmnVnVVVnBBbBBmvlhccfffffkkvNNu:affffaffkkkbcfcbbccccffccbbbnbfbcnbBcbBDbDBBDfGGbGGbbbDfBsDDGGGGGG",
"99651asshkkggkkgjhhkkhkjjf9qcBBnbVVnBBBBBcBclhhkfffffcckvNNv6:affffkfffffbfbfcffbffbnbfcbBbcczbnVnnVBmBbBBBDGbGbGGbGccBDDDGGGGGf",
"0134iajklhhkkkkkhggjsgjgke9kmmmnBVVVVBBbBBbklhlhlkkllzlvnBVf56asffffffffcfcfbbfcfkbbbbbbbbbbclnnnnnnVBnbBVVVZVZVVbbbbDDDDDGVBddr",
"qgishjggjjkkkkkkllkkkkksq7ammBBnBVVBBVBBBbccklklkklzvxvmmVV95rfffffkffcffcbfbfbffkbbbbbBbkkBnvnnVBnBVBnnBVZVVZZZGbGGbBDbDbbay997",
"gkjskkkkhlkjgkkkklkklkjr6qlnBVVBVVVVVBBBnvfkkkbvvvxvbvvZmmB5:usfffffsskkcfbbbbfbfbbbbBbbbbBBmnmVDnBmBVVBVVZGGHHHGbGGDDGGfp98111q",
"gksskghkjhhhjkhkkkjklkr7ezmBVVVVZVVVVBBbnccczblznnnbvnvMmZd::rfffffffffkfbcfffbbbbkbbbbkbbbBmmVDDDVDVDGGGGGHHHHHGGGGDDDp966112ps",
"khgsjggjhgjkjhkzjggjkp7edVVZVZBBVVBVBBvbcllzvnzbbnvbbvnmNNa:5rffffffkfssfcbfbbfbbbbbbbbbBBVBBVDDDGGGGGGHGHHHHHHHGGGD9pu81<<1qssg",
"fjskkhkkkkkhkklllgdfaeqfBZVVVZVVZZmvbkllbvvxzbnvzvnvxvCZNDa55affffkfkfkkfbfbbffbbkbbbbbbBVVDBczfffznbBVZGGGHHHLAByp965,,1qissssj",
"ssjhhkkkhhkkkhvvgjhaeqknVVBVZZVZANvckgkxnnnnnvnnvbnnvmNZZC956fffffkkkkkkbffbbbDbBbBBVVVDVVVk966:66667999eyddzCxr5695,88pikgfssgj",
"gjkhjklkljlMvlvjagaerkNZVZVZZZHVvvvvzlnnnnnBnnnnnvzbvmZCZn555affkffkkkfsfbcfcbfbbbbbfffyr97665::>6866#:556667ee75956pspffghsjksk",
"kklllMNvvNMllkkhkdrqfVVVVZZZGDZvllkznnnnnnBnnnnxnnvnbmZZVm955pffffffffffbffa95556665::65:::>>*-qdffr71q011,:,1224rrtgapssasikhkk",
"llkhskklkklkjkjdtreamVnVVGVBnbvvgslbnnnnnnzbnnnbnnbzvmMmmDb557rqp9u9899999655555565:::$5::;>>etkffkr7qaaspp8,140atrajsasassgjhkk",
"kkjhhkkkkkjkjgtwrqdnVVNNVBbnlnhsfznnBVBnnnBxnnnnnnnnMZZNDDy555$555555::::9555#;:#689ryyyrrrrdjkjkkkr2uaaasaasasktraaifgfgssagkgk",
"vlhghhjghjllt4illvBVVZDNBBfbvhavBbnBnnnbnnnBnnBBnxzVZZZAVu555,8u98pp88896#5#559psafcbbbbcklbblkkkkfeqpasaaapsccftChtssgssjijllll",
"ggahkkzkjlxrqannBVBVZDDnnvvnkqlmBnnnmnnnBnnBnnnnnnCZZAZk955768yafffcfkcfpu76ufBbnbnbbbbbbcbbzkkkkkdeuappaaafllltCLdasgkkhhgggiak",
"kkklklllkngqfnnnBVVVNNnvvnvhwhnnnnBnBBVBBBnBBVnnCAZAAxr699#8uffsayafdfffyafbbbbbbcbbnnbbnncclzkklr78aaasassflxktSlasgggiiwigkkjk",
"klzzkkzlMzqsnnVVBBVBNMvvnliilnvnnBBnnnnVVvnVZZAAAAAny7678#2pfffBfssyryyrdbbbbbbbbbnbnczccnnckkknd1,2aaassaszzlstiqqasssggkhlljkl",
"jkllkkllMpwvmnnBBmvmNvnvg4qzBBBnnnnnBnBnVZZDAAZASZd9777>#2pfffBkBBkBcBkfbBbbbbbBnbnnBbbcccbblklvd<2saasssaslvktwpassfgkhjkhjkkkk"
};
