/* XPM */
static char *ce6d601d2df94d33abee238ac4955f9faFysdecEQ9kQ6U13[] = {
/* columns rows colors chars-per-pixel */
"32 32 8 1 ",
"  c None",
". c black",
"X c #68541F",
"o c #807020",
"O c #AA8834",
"+ c #C0A040",
"@ c #F2C44D",
"# c #F8E060",
/* pixels */
"                                ",
"             XXX                ",
"           XX+O+XX              ",
"          X@+O+@+@X             ",
"         X@+O+@+@#@X  .....     ",
"        X@+O+@+@#@+@o........   ",
"        o+O+@+@#@+@+X........   ",
"        Xo+@+@#@+@+oX........   ",
"        oXO+@#@+@+oXo.......    ",
"        XoOO+@+@OOXoX.......    ",
"        oXoo@++OoXoXo......     ",
"        XXXO+OOoOOXoX......     ",
"      XX+O+XX++OoXoXo......     ",
"     X@+O+@+@XOoOOXoX......     ",
"    X@+O+@+@#@XOoXoXXX.......   ",
"   X@+O+@+@#@+@oOXX+O+XX....... ",
"   o+O+@+@#@+@+XX@+O+@+@X...... ",
"   Xo+@+@#@+@+oX@+O+@+@#@X..... ",
"   oXO+@#@+@+oXo+O+@+@#@+@o.... ",
"   XoOO+@+@OOXoXO+@+@#@+@+X...  ",
"   oXoo@++OoXoXo+@+@#@+@+oX...  ",
"   XoOO+OOoOOXoXO+@#@+@+oXo...  ",
"   oXoo@++OoXoXoOO+@+@OOXoX..   ",
"   XoOO+OOoOOXoXoo@++OoXoXo..   ",
"   oXoo@++OoXoXoOO+OOoOOXoX..   ",
"   XoOO+OOoOOXoXOO+OOoOOXoX.    ",
"   oXoo@++OoXoXooo@++OoXoXo.    ",
"   .oOO+OOoOOXoXOO+OOoOOXo..    ",
"   ..oo@++OoXoX.oo@++OoXo..     ",
"    ..O+OOoOO....O+OOoOO..      ",
"     ...++O...  ...++O...       ",
"       .....      .....         "
};
