/* XPM */
static char *_303e151b9ee482d849a5674750e3b8dc5bxYYJyoLnyA09q[] = {
/* columns rows colors chars-per-pixel */
"32 32 24 1 ",
"  c None",
". c black",
"X c gray19",
"o c #401000",
"O c #601800",
"+ c #402000",
"@ c #603000",
"# c #604800",
"$ c #7F5A48",
"% c #800000",
"& c #A00000",
"* c #802000",
"= c #804000",
"- c #A05000",
"; c #806000",
": c #A07800",
"> c #A5765E",
", c #C09000",
"< c #E0A800",
"1 c #CA8F72",
"2 c #E5A282",
"3 c #FFB691",
"4 c #FFD3AF",
"5 c #D0D0D0",
/* pixels */
"              3432              ",
"       -@    233422             ",
"      -=@+   223332             ",
"      --=@  12$$3$$2            ",
"     -==@+  >2213112            ",
"     --==@  >12&&&&121          ",
"     -=-=@1$>1%%%%%%2>21>       ",
"     -==@@2>$>%5%%5%1>1>21>     ",
"    1--=@2111$111111$>>1>21>    ",
"   121-==1>$11$$$$$$11$>1>>1>   ",
"  12>1-=@$ >1221111221 $$1111>  ",
"  211$==@ $>2111>1211>   $$>11  ",
" 121$-=@@ >$1111>1111$>   >12>  ",
" >11>-==  >1>>>>11>>>1>   >12>  ",
" $121-=@ $>1222221111>>.  >21>  ",
"  $211=@ $>1222222211>>.. 121$  ",
"   >2122 o>11222221111>..>>>1$  ",
"    $111 oO>>1111111>>o.>211>.  ",
"     $>> :OO$>>>X>>>$oo.$111$.  ",
"     =@  :,OO**$$$$OOo:..$$$..  ",
"     @  #:;,O******OO,#:......  ",
"        :,,;<:<****:,,::......  ",
"       #:;$,:<:<:<:<,;,#......  ",
"      :::,$,<$<<<<<$,,$:.....   ",
"       :$,:<:$:<$:<$;,>......   ",
"        $1>:>$$:.<$>1,21....    ",
"        $22<>$...<$>112>....    ",
"       $>11>$...  $>1>>....     ",
"       $>>>>$..    $>11....     ",
"       >111>..     $>>221.      ",
"       >>>$$.     .$$>>>>.      ",
"      .......     .......       "
};
