/* XPM */
static char *result[] = {
/* columns rows colors chars-per-pixel */
"32 32 9 1 ",
"  c #110B08",
". c #110E0D",
"X c #18120F",
"o c #1F1815",
"O c #1D1918",
"+ c #2B2623",
"@ c #302721",
"# c #40342E",
"$ c #4F413B",
/* pixels */
"O...OOOOOOOO........OO+++O......",
"$o  o@@@@@@oooo@@@@@    o  @#$$$",
"$@ o@@###@@o@@####@@@@@   o@@#$$",
"@@ @@$$$#@@o@##$$###@@@@@ @@@##$",
"## @#$#@@@@o##$$$$$$###@@  o@@#@",
"## @####@@oo#$$$$###@@@@@o  @@@@",
"@  @@#@@@@o@#$$##@@@@oo@ooo @@@@",
"@ o@@##@@@o@###@@@@oooooooo @@@o",
"o oo@@@@@@o@@@@@ooo     o   @@@o",
"o    ooooo oooooooo o#@o o $oo o",
" ### #o         o  o##@o oo#   o",
"o#@@@@o  @@@@@@##@@ o@@o oo@@ # ",
"@@@@oo o @@######### o@o o o@ #o",
"@@@oo oooo@@########@ o o## oo@@",
"@o@oo@@@@oo@@#####@@@@  ##@@oo@@",
"@@oo@@@@@@oo@@@####@@o o#@@@ @@@",
"@o@oo@#$$#@@oo@@##@@o  @@@@oo@@@",
"@@ooo#$$###@ooo@@@@@o ##@@@o @@@",
"@ooo@#$###@@@X o@@@@o #@o o @@@@",
"ooX@@####@@@@X  o@@@o    oooo@@@",
"oooX@@@@@@X@XX  ooooo ######oooo",
"o      XXXX   oo ooo #$$$$$## oo",
"@@XXXXXX@@@o###oo   @$$$$$#####@",
"@####X@@##@@@##oo o@#$$$#######@",
"###$#X@###@@@@oo o@#@#$###@####@",
"@#$$#@#########o o@@#@##@@@###@@",
"##$$#@@@@@#####@ o@@@@##@@@@##@@",
"@####@o@o@@@@@#@ooo@@@#@@@@@#@@@",
"oo###@oo o@@@@@@o oo@@#@@@@@@@@@",
"@o@@@@o    @@@@@o  oo@@@oo@@@@@o",
"o oooo o  oooooooo  oooooooooooo",
"oo oooo oooooooooooooooooooooooo"
};
