/* XPM */
static char *result[] = {
/* columns rows colors chars-per-pixel */
"32 32 9 1 ",
"  c #101010",
". c #202020",
"X c gray19",
"o c gray25",
"O c #505050",
"+ c #606060",
"@ c gray44",
"# c #808080",
"$ c #909090",
/* pixels */
"           X     X              ",
" @$#$ @$#@@$$#@$# $@#@$ $@@@##@@",
" #++O $OO+O+OO+Oo @+oOo @++OOoOX",
" #+OXX@OoOOO+OooXX@OXoX @OOooXOX",
"    X X     X     X             ",
"X $@$@+@+ $#+$@#@+ o@@++ +$#+ +@",
"X $+oOOoo @OOoOOOo @oooo @Ooo @O",
"X #++oOooX+oOoooOo.+o.X..@oOo +X",
"           X X    .. . .X     X ",
" OoOOoOo @@$@$@+X+@#@+++@@ $#+@+",
" Ooo.oX. @+oooXX @+OOoOooo oOOXo",
" OoXo..o +OoOoOo +OoooooOo OoXoX",
"         X                    X ",
"X @#@@$@$$$@ o+O+o $#$@++ +@@+++",
"X @+oOooOooO +o+oX @OOOoO @OOooO",
"X @OOooOoOOO +oXoX @OoOXoX+OoOoo",
"  X                      X     X",
" #$$#+#@@+ +@@$+ +$#$++X+@@$@@++",
" @+OooOOoO @OoOo @OoOOoX$OoOOooO",
" @+oOOooOOX+OOoO @OXoOO #OoOoOOo",
"      XX   X        X  X    X X ",
"X @#@+X+$@$@+ o+O+O +@$@+@@+X+@@",
"X $+Oo #OOOOo OoOo. @OOOoOXoX@Oo",
"X @+oX @OoXoX X.XoX +OoXoooX +oX",
"     X  X X        XX           ",
" @$@ +@#$+ +@$#+ +@$#@+@+ o+++oX",
" $+o $oOOo @OoOoX@OoooOOo +OOOOo",
" @OX @OoXX @oXoX +OoXoOoX OoXooX",
"     XX   X  X XX  X            ",
" X#$@#@$#$$#+ @$+$OX$$@+ @@$$@+O",
" X@OOOOooOoOo @OooX @Ooo @OoooOo",
" XoXXOXXXXXXX oXXXX OXXX OXXXXXX"
};
