/* XPM */
static char *result[] = {
/* columns rows colors chars-per-pixel */
"32 32 256 2 ",
"   c red",
".  c #E00000",
"X  c #C00000",
"o  c #A00000",
"O  c #800000",
"+  c #600000",
"@  c #400000",
"#  c #300000",
"$  c #200000",
"%  c #180000",
"&  c #100000",
"*  c #804040",
"=  c #A05050",
"-  c #C06060",
";  c #E07070",
":  c #FF8080",
">  c #FF4000",
",  c #E03800",
"<  c #C03000",
"1  c #A02800",
"2  c #802000",
"3  c #601800",
"4  c #401000",
"5  c #300C00",
"6  c #202000",
"7  c #181800",
"8  c #101000",
"9  c #808040",
"0  c #A0A050",
"q  c #C0C060",
"w  c #E0E070",
"e  c #FFFF80",
"r  c #FF8000",
"t  c #E07000",
"y  c #C06000",
"u  c #A05000",
"i  c #804000",
"p  c #603000",
"a  c #402000",
"s  c #301800",
"d  c #002000",
"f  c #001800",
"g  c #001000",
"h  c #408040",
"j  c #50A050",
"k  c #60C060",
"l  c #70E070",
"z  c #80FF80",
"x  c #FFC000",
"c  c #E0A800",
"v  c #C09000",
"b  c #A07800",
"n  c #806000",
"m  c #604800",
"M  c #403000",
"N  c #302400",
"B  c #002020",
"V  c #001818",
"C  c #001010",
"Z  c #408080",
"A  c #50A0A0",
"S  c #60C0C0",
"D  c #70E0E0",
"F  c #80FFFF",
"G  c yellow",
"H  c #E0E000",
"J  c #C0C000",
"K  c #A0A000",
"L  c #808000",
"P  c #606000",
"I  c #404000",
"U  c #303000",
"Y  c #000020",
"T  c #000018",
"R  c #000010",
"E  c #404080",
"W  c #5050A0",
"Q  c #6060C0",
"!  c #7070E0",
"~  c #8080FF",
"^  c #80FF00",
"/  c #70E000",
"(  c #60C000",
")  c #50A000",
"_  c #408000",
"`  c #306000",
"'  c #204000",
"]  c #183000",
"[  c #200020",
"{  c #180018",
"}  c #100010",
"|  c #804080",
" . c #A050A0",
".. c #C060C0",
"X. c #E070E0",
"o. c #FF80FF",
"O. c green",
"+. c #00E000",
"@. c #00C000",
"#. c #00A000",
"$. c #008000",
"%. c #006000",
"&. c #004000",
"*. c #003000",
"=. c #603030",
"-. c #402020",
";. c #301818",
":. c #806060",
">. c #A07878",
",. c #C09090",
"<. c #E0A8A8",
"1. c #FFC0C0",
"2. c #00FF80",
"3. c #00E070",
"4. c #00C060",
"5. c #00A050",
"6. c #008040",
"7. c #006030",
"8. c #004020",
"9. c #003018",
"0. c #606030",
"q. c #404020",
"w. c #303018",
"e. c #808060",
"r. c #A0A078",
"t. c #C0C090",
"y. c #E0E0A8",
"u. c #FFFFC0",
"i. c cyan",
"p. c #00E0E0",
"a. c #00C0C0",
"s. c #00A0A0",
"d. c #008080",
"f. c #006060",
"g. c #004040",
"h. c #003030",
"j. c #306030",
"k. c #204020",
"l. c #183018",
"z. c #608060",
"x. c #78A078",
"c. c #90C090",
"v. c #A8E0A8",
"b. c #C0FFC0",
"n. c #0080FF",
"m. c #0070E0",
"M. c #0060C0",
"N. c #0050A0",
"B. c #004080",
"V. c #003060",
"C. c #002040",
"Z. c #001830",
"A. c #306060",
"S. c #204040",
"D. c #183030",
"F. c #608080",
"G. c #78A0A0",
"H. c #90C0C0",
"J. c #A8E0E0",
"K. c #C0FFFF",
"L. c blue",
"P. c #0000E0",
"I. c #0000C0",
"U. c #0000A0",
"Y. c navy",
"T. c #000060",
"R. c #000040",
"E. c #000030",
"W. c #303060",
"Q. c #202040",
"!. c #181830",
"~. c #606080",
"^. c #7878A0",
"/. c #9090C0",
"(. c #A8A8E0",
"). c #C0C0FF",
"_. c #8000FF",
"`. c #7000E0",
"'. c #6000C0",
"]. c #5000A0",
"[. c #400080",
"{. c #300060",
"}. c #200040",
"|. c #180030",
" X c #603060",
".X c #402040",
"XX c #301830",
"oX c #806080",
"OX c #A078A0",
"+X c #C090C0",
"@X c #E0A8E0",
"#X c #FFC0FF",
"$X c magenta",
"%X c #E000E0",
"&X c #C000C0",
"*X c #A000A0",
"=X c #800080",
"-X c #600060",
";X c #400040",
":X c #300030",
">X c white",
",X c gray88",
"<X c #C0C0C0",
"1X c #A0A0A0",
"2X c #808080",
"3X c #606060",
"4X c gray25",
"5X c #202020",
"6X c #FF0080",
"7X c #E00070",
"8X c #C00060",
"9X c #A00050",
"0X c #800040",
"qX c #600030",
"wX c #400020",
"eX c #300018",
"rX c gray94",
"tX c #D0D0D0",
"yX c gray69",
"uX c #909090",
"iX c gray44",
"pX c #505050",
"aX c gray19",
"sX c #101010",
"dX c #7F5A48",
"fX c #A5765E",
"gX c #CA8F72",
"hX c #E5A282",
"jX c #FFB691",
"kX c #FFD3AF",
"lX c #605020",
"zX c #806A2A",
"xX c #A08535",
"cX c #C0A040",
"vX c #E0BA4A",
"bX c #F8E060",
"nX c #FFFFA0",
"mX c #605448",
"MX c #807060",
"NX c #A08C78",
"BX c #C0A890",
"VX c #E0C4A8",
"CX c #010101",
"ZX c black",
"AX c black",
"SX c black",
"DX c black",
"FX c black",
"GX c black",
"HX c black",
"JX c black",
"KX c black",
"LX c black",
"PX c black",
"IX c black",
"UX c #476C6C",
/* pixels */
"F i.i.i.p.p.p.p.a.a.s.s.d.d.d.h.F i.i.i.p.p.p.p.a.a.s.s.d.d.d.h.",
"i.F a.a.s.s.d.s.d.f.f.f.f.f.h.g.i.F a.a.s.s.d.s.d.f.f.f.f.f.h.g.",
"i.p.K.a.s.s.s.d.s.d.f.f.f.h.g.h.i.p.K.a.s.s.s.d.s.d.f.f.f.h.g.h.",
"i.a.p.K.a.s.d.s.d.f.d.f.h.g.g.h.i.a.p.K.a.s.d.s.d.f.d.f.h.g.g.h.",
"i.p.a.p.K.a.s.d.s.d.f.h.g.g.h.B i.p.a.p.K.a.s.d.s.d.f.h.g.g.h.B ",
"i.a.p.p.p.F a.s.f.f.h.g.g.g.h.B i.a.p.p.p.F a.s.f.f.h.g.g.g.h.B ",
"p.s.a.a.p.p.F s.f.h.g.g.h.g.h.B p.s.a.a.p.p.F s.f.h.g.g.h.g.h.B ",
"p.a.s.s.s.s.p.F h.g.h.g.g.h.g.B p.a.s.s.s.s.p.F h.g.h.g.g.h.g.B ",
"a.s.a.s.a.s.s.a.f.h.g.g.h.h.h.B a.s.a.s.a.s.s.a.f.h.g.g.h.h.h.B ",
"a.s.s.a.s.a.p.f.f.f.h.h.g.h.h.B a.s.s.a.s.a.p.f.f.f.h.h.g.h.h.B ",
"a.a.s.s.a.p.f.f.g.f.f.h.h.g.h.B a.a.s.s.a.p.f.f.g.f.f.h.h.g.h.B ",
"a.s.s.s.p.f.f.f.f.g.g.f.h.h.h.B a.s.s.s.p.f.f.f.f.g.g.f.h.h.h.B ",
"a.s.s.p.f.f.f.f.g.g.g.h.f.h.h.B a.s.s.p.f.f.f.f.g.g.g.h.f.h.h.B ",
"a.s.p.f.f.f.g.f.g.g.g.g.h.f.h.B a.s.p.f.f.f.g.f.g.g.g.g.h.f.h.B ",
"a.p.f.g.f.g.f.g.f.g.g.g.g.h.g.B a.p.f.g.f.g.f.g.f.g.g.g.g.h.g.B ",
"s.g.h.h.h.h.h.h.B B B B B B B g.s.g.h.h.h.h.h.h.B B B B B B B g.",
"F i.i.i.p.p.p.p.a.a.s.s.d.d.d.h.F i.i.i.p.p.p.p.a.a.s.s.d.d.d.h.",
"i.F a.a.s.s.d.s.d.f.f.f.f.f.h.g.i.F a.a.s.s.d.s.d.f.f.f.f.f.h.g.",
"i.p.K.a.s.s.s.d.s.d.f.f.f.h.g.h.i.p.K.a.s.s.s.d.s.d.f.f.f.h.g.h.",
"i.a.p.K.a.s.d.s.d.f.d.f.h.g.g.h.i.a.p.K.a.s.d.s.d.f.d.f.h.g.g.h.",
"i.p.a.p.K.a.s.d.s.d.f.h.g.g.h.B i.p.a.p.K.a.s.d.s.d.f.h.g.g.h.B ",
"i.a.p.p.p.F a.s.f.f.h.g.g.g.h.B i.a.p.p.p.F a.s.f.f.h.g.g.g.h.B ",
"p.s.a.a.p.p.F s.f.h.g.g.h.g.h.B p.s.a.a.p.p.F s.f.h.g.g.h.g.h.B ",
"p.a.s.s.s.s.p.F h.g.h.g.g.h.g.B p.a.s.s.s.s.p.F h.g.h.g.g.h.g.B ",
"a.s.a.s.a.s.s.a.f.h.g.g.h.h.h.B a.s.a.s.a.s.s.a.f.h.g.g.h.h.h.B ",
"a.s.s.a.s.a.p.f.f.f.h.h.g.h.h.B a.s.s.a.s.a.p.f.f.f.h.h.g.h.h.B ",
"a.a.s.s.a.p.f.f.g.f.f.h.h.g.h.B a.a.s.s.a.p.f.f.g.f.f.h.h.g.h.B ",
"a.s.s.s.p.f.f.f.f.g.g.f.h.h.h.B a.s.s.s.p.f.f.f.f.g.g.f.h.h.h.B ",
"a.s.s.p.f.f.f.f.g.g.g.h.f.h.h.B a.s.s.p.f.f.f.f.g.g.g.h.f.h.h.B ",
"a.s.p.f.f.f.g.f.g.g.g.g.h.f.h.B a.s.p.f.f.f.g.f.g.g.g.g.h.f.h.B ",
"a.p.f.g.f.g.f.g.f.g.g.g.g.h.g.B a.p.f.g.f.g.f.g.f.g.g.g.g.h.g.B ",
"s.g.h.h.h.h.h.h.B B B B B B B g.s.g.h.h.h.h.h.h.B B B B B B B g."
};
