/* XPM */
static char *b88dc126bfcb4728dfa5f36c0a7bc4e90Ef60PXhWrPCbepl[] = {
/* columns rows colors chars-per-pixel */
"32 32 20 1 ",
"  c black",
". c #101010",
"X c #202020",
"o c gray19",
"O c #68541F",
"+ c #1D2D69",
"@ c gray25",
"# c #505050",
"$ c #606060",
"% c gray44",
"& c #AA8834",
"* c #F2C44D",
"= c #F8E060",
"- c #243882",
"; c #2A439C",
": c #3F64E8",
"> c #808080",
", c #909090",
"< c #A0A0A0",
"1 c white",
/* pixels */
"                                ",
" %<<>%#X%<,>#o>,<%#o>,<>%@X>,%@ ",
" >>%##@X###@@X####@o,>,%%#X,<%# ",
" #@@ooXXXoooXXoXXoo%>%###@.>,%# ",
" ooXX<,>%#X%>%#X%#o##@ooX..o%%# ",
" %>%X###@@X<%%#X>%#ooXX%>%#X>%@ ",
" >,%oooXXXX##@@o%<>,%#o><%#X##@ ",
" #%,>%@o,%oXXoooo###@@X>%%@XXXX ",
" @#%<%#X%>#X%>,%#oooXXXo#@@o%%# ",
" ooo@#@X,%#X<%##@X%><%#XXoo%><# ",
" >%#ooXX##@o#@XXXX##>%@X@##%,%# ",
" ,>#o%>ooo@XXX----XX##XoXXXo>%@ ",
" <%@X>,>#XXX--;;;---XX#%%<#X%%@ ",
" ##@X%>%@X--;;;;;;;---X#>%#X#@X ",
" XXXX##@X--;;;:::;;;---X>#oXXXX ",
" >%#oXXoX-;;;::=::;;;--X>#o%>%# ",
" %,>%#X#X-;;;:O=O:;;;--X>#X<>%# ",
" >%>%#o#X-;;:O&=&O:;;;-X%#X%,%# ",
" ##@@o%@X;;:O&*=*&O:;;-XoXXo>%# ",
" oXXXo>@X::O&&*=*&&O::;X%%#o%%# ",
" %%#X@@@X:O&**&1&**&O:;X%%#X### ",
" >,#oXXo =====111=====O >#oXooX ",
" ,>%#X%#X:O&**&1&**&O:-X<#X%>%# ",
" ##@@X<#X++O&&*=*&&O+++X,#X,%%# ",
" oXXXo,#Xo@oO&*=*&Oo@o@X%@X><># ",
" %#X%>%@XooooO&=&OoooooX%@o%>%@ ",
" %#o##@@X#####O=O######XooXo%%# ",
" <@oXXXoX$#$#$#=#$#$#$#X<%#X##@ ",
" ,%#X<%#X######=#######X,%#XXoX ",
" %%@o>%#X$$$$$$$$$$$$$$X>%@X>%@ ",
" #@@o##@X%$%$%$%$%$%$%$X#@@o##@ ",
"                                "
};
