/* XPM */
static char *result[] = {
/* columns rows colors chars-per-pixel */
"32 32 103 2 ",
"   c black",
".  c #010101",
"X  c #020202",
"o  c gray1",
"O  c #040404",
"+  c gray2",
"@  c #060606",
"#  c #070707",
"$  c gray3",
"%  c #090909",
"&  c gray4",
"*  c #0B0B0B",
"=  c #0C0C0C",
"-  c gray5",
";  c #0E0E0E",
":  c gray6",
">  c #101010",
",  c #111111",
"<  c gray7",
"1  c #131313",
"2  c gray8",
"3  c #151515",
"4  c #161616",
"5  c gray9",
"6  c #181818",
"7  c #191919",
"8  c gray10",
"9  c #1B1B1B",
"0  c gray11",
"q  c #1D1D1D",
"w  c #1E1E1E",
"e  c gray12",
"r  c #202020",
"t  c gray13",
"y  c #222222",
"u  c #232323",
"i  c gray14",
"p  c #252525",
"a  c gray15",
"s  c #272727",
"d  c #282828",
"f  c gray16",
"g  c #2A2A2A",
"h  c gray17",
"j  c #2C2C2C",
"k  c #2D2D2D",
"l  c gray18",
"z  c #2F2F2F",
"x  c gray19",
"c  c #313131",
"v  c #323232",
"b  c gray20",
"n  c #343434",
"m  c #353535",
"M  c gray21",
"N  c #373737",
"B  c gray22",
"V  c #393939",
"C  c #3A3A3A",
"Z  c gray23",
"A  c gray24",
"S  c #3F3F3F",
"D  c gray25",
"F  c #414141",
"G  c gray26",
"H  c #434343",
"J  c #444444",
"K  c gray27",
"L  c gray28",
"P  c #484848",
"I  c #494949",
"U  c #4B4B4B",
"Y  c #4C4C4C",
"T  c gray30",
"R  c #4E4E4E",
"E  c gray31",
"W  c #505050",
"Q  c #515151",
"!  c gray32",
"~  c #535353",
"^  c #555555",
"/  c #5B5B5B",
"(  c gray36",
")  c #5D5D5D",
"_  c gray37",
"`  c gray38",
"'  c #626262",
"]  c gray39",
"[  c #646464",
"{  c gray40",
"}  c #686868",
"|  c #6A6A6A",
" . c gray44",
".. c #717171",
"X. c #727272",
"o. c gray45",
"O. c gray46",
"+. c #767676",
"@. c #777777",
"#. c gray47",
"$. c gray48",
"%. c #7C7C7C",
"&. c gray49",
/* pixels */
"t a a a t t t a t t t t t t a t t a t t a t a a t a a t a t a t ",
"t M D /  ./ D ../ i X.) X._ O.h P [ I x Y v R { @.} T #.} R ~ x ",
"a _  .D ( D ) D D ( F o.g L ` L j U x U | E | $.} W | Q E $.z 5 ",
"t D u X 1 o 1 o s J s # # 6 k 7 0 = = b r X o o 1 1 X < < 1 = < ",
"t ) G + f 2 f 1 1 2 @ 8 % & 8 * ; ; O < 1 # X X . a a 4 % 5 1 - ",
"a ..i 2 + 1 K d K f 7 % * 9 * w n : + + p $ 5 $ 4 s A g . s - < ",
"a ( D O 2 J d 2 j 7 7 c 9 q - E e + 3 + 5 s 5 f g 8 X X 8 8 8 - ",
"t ( X.< d K f $ X 8 % 8 = ; n w , + # . s 6 f & * 0 * = * o 1 < ",
"t X.o.1 3 3 6 % O = 9 q : o r N 2 # X 6 7 g S X e w l q = o 2 < ",
"a F i O # $ 8 & * O O ; r : N < + @ . 7 g q - X : . w -     2 - ",
"a o.G j 8 % 8 x 0 0 q   Q > y p a X 9 h q - o o > z t o < o 2 - ",
"t H ` 5 & 8 v 0 - T n > t + + p 5 * * 9 = o O , y t O   O   2 < ",
"t ` h 6 & * = O O ; r y @ X 4 s . o * w w x y   O   O 1   o ; 8 ",
"a O.h 6 c = q ; > y O u @ X 6 g 9 = w l ; y o O   @ 1 y y r 1 - ",
"a +.' $ 0 ; ; m y @ . 5 4 $ X * 0 O ; : y o + 2 @   i +   < - - ",
"a ] z 0 n e > y , 2 @ @ a S 8 0 ; O O u 1 + p + # 3 3   O < 9 - ",
"a U x - - > o 1 a 4 5 8 8 f g q O o : o o 1 1   5 s + a 1 O 1 - ",
"a @.z = r M u i 4 5 % & 9 % G X : r v y 1 1 s # s # 3 +     ; < ",
"t @.U b y 1 2 4 % X * 0 * - l o > X y < i @ 4 s @ 4 # 4 O   2 - ",
"t v T . O @ 6 & X 0 o ; O - r r o y v o 4 s 4 @ s s @ 3 p O ; < ",
"a R %.O 5 $ X = X q ; O : o y 1 1 < < a s $ 5 5 @ $ s s 4 2 1 < ",
"t %.B + d 8 * O o ; r : : y < o O i i 4 5 $ # s 8 $ #   #   0 < ",
"t V C 3 # 7 9 * = e X O e v y < y O 1 # # d # 4 4 4 # 4 3 O 1 8 ",
"a ~ < a 5 & 9 9 G k X r : o < y y + + 4 # # 4 # a # a a O   1 - ",
"t &.V a & 9 * 0 = q q e : y o t o 1 1 # 3 a 3 @ a + + o 2 2 ; < ",
"a ! V % 8 * X q X l ; ; r y X 1 t o O p @ p a + a a 2 2 O O 0 < ",
"t %.V % X q * * w - w ; e X 1 < o y < t 2 a 3 o o u o p     0 8 ",
"t Q ^ $ 0 * X * : X w w o , 1 o 1 < < o i o 2 1 i i o O O O 1 = ",
"t B V $ & X = o o o w ; o , O   o < t   y < O < 1 o < r r : ; 7 ",
"a ~ Z . 6 8   o = = X w : O   O O y , o   1   + < o e e :   8 - ",
"a B             o       o       o o         O   o   o   o   ; < ",
"a <                                                         1 - "
};
