/* XPM */
static char *_2dc539f6f4b4e64b675f83c525c4960f8TP2bqr2E0QxZ2F[] = {
/* columns rows colors chars-per-pixel */
"32 32 34 1 ",
"  c None",
". c black",
"X c #2C2D0E",
"o c #353609",
"O c #433005",
"+ c #5B4107",
"@ c #50510E",
"# c #434416",
"$ c #5B5C1E",
"% c #737427",
"& c #A36717",
"* c #CB7225",
"= c #D3742B",
"- c #E47838",
"; c #F67D44",
": c #858718",
"> c #8B8D2E",
", c #BBBD21",
"< c #A3A337",
"1 c #D29210",
"2 c #E7AD33",
"3 c #BABB40",
"4 c #C3C357",
"5 c #E0E15D",
"6 c #CBCD6F",
"7 c #ECC26A",
"8 c #E5E678",
"9 c #D3D486",
"0 c #DBDD9E",
"q c #EFF0AE",
"w c #E4E5B6",
"e c #EDEDCD",
"r c #F4F5CA",
"t c #F6F6E5",
/* pixels */
"                                ",
"               004<%            ",
"               044<%            ",
"               4   %            ",
"               <4 4<            ",
"               <4 <<            ",
"               %<o<% 1          ",
"            772 %$$ 121         ",
"           7221112277221        ",
"          2111%%$1122721        ",
"          1%%#$900<%$2721       ",
"         4<%#X6wt;w93#271       ",
"         4%%XX3=--==6X#271      ",
"        4$%#OX<3*==63X<#71      ",
"        <$#OO#%<3*33%X<%27      ",
"        $$$O+#$%<&<%$XO<#71     ",
"      tt9$OO+O#X%%%#X@O<%71     ",
"      t44OOO+q,,###::r<9#71     ",
"      t41OO++@rrq8:8r#99#72     ",
"        1OO++@6<r85:<%94+27     ",
"        1OO+O@9<r85:<<#++271    ",
"        1OO+O@9<r55:<<#++271    ",
"        7O++OO9<%rr@3<#O++71    ",
"        7O++OOe9%#OOe93O++71    ",
"        7O+OOO63%#OO93<XO+21    ",
"       71OOOOO63<#OO3<>XO+11    ",
"       7O+OOOO6<<%OO#<>#OO11    ",
"       7O+OOOO3<>$+O#6<#XOO1    ",
"       1O+OO9%e<%$+OOe6#XOO1    ",
"           <9e<<$O+OO<e6%OO1    ",
"           <9$$$      <%%       ",
"                                "
};
